# xmcd CD database file
# Copyright (C) 1997 Ti Kan
# 
# Track frame offsets:
#     150
#     18237
#     35087
#     54227
#     78970
#     98862
#     122870
#     140385
# 
# Disc length: 2272 seconds
# 
# Revision: 1
# Processed by: cddbd v1.4b41PL1 Copyright (c) Steve Scherf et al.
# Submitted via: DiscPlay 4.0.3
# 
DISCID=6008de08
DTITLE=Janis Joplin - I Got Dem Ol' Kozmic Blues Again Mama!
DYEAR=1900
DGENRE=
TTITLE0=Try (Just A Little Bit Harder)
TTITLE1=Maybe
TTITLE2=One Good Man
TTITLE3=As Good as You've Been to This World
TTITLE4=Kozmic Blues
TTITLE5=To Love Somebody
TTITLE6=Litlle Girl Blue
TTITLE7=Work Me, Lord
EXTD=
EXTT0=
EXTT1=
EXTT2=
EXTT3=
EXTT4=
EXTT5=
EXTT6=
EXTT7=
PLAYORDER=
